<?xml version="1.0" encoding="utf-8"?><svg viewBox="0 0 48 48" xmlns="http://www.w3.org/2000/svg" xmlns:xlink="http://www.w3.org/1999/xlink"><style>:root>svg{display:none}:root>svg:target{display:block}</style><svg fill="none" viewBox="0 0 8 16" id="arrow" xmlns="http://www.w3.org/2000/svg"><path d="M7 1L1 8l6 7" stroke="#fff" stroke-width="2" stroke-linecap="round" stroke-linejoin="round"/></svg><svg fill="none" viewBox="0 0 48 48" id="facebook" xmlns="http://www.w3.org/2000/svg"><path fill-rule="evenodd" clip-rule="evenodd" d="M24 0C10.745 0 0 10.745 0 24s10.745 24 24 24 24-10.745 24-24S37.255 0 24 0zm2.502 25.054v13.058h-5.403V25.054H18.4v-4.5h2.7v-2.701c0-3.671 1.523-5.854 5.853-5.854h3.605v4.5h-2.253c-1.686 0-1.797.629-1.797 1.802l-.006 2.253h4.082l-.478 4.5h-3.604z" fill="currentColor"/></svg><svg fill="none" viewBox="0 0 48 48" id="instagram" xmlns="http://www.w3.org/2000/svg"><path fill-rule="evenodd" clip-rule="evenodd" d="M24 0C10.745 0 0 10.745 0 24s10.745 24 24 24 24-10.745 24-24S37.255 0 24 0zm-5.277 11.277c1.366-.062 1.802-.077 5.278-.077h-.004c3.478 0 3.912.015 5.278.077 1.362.063 2.293.279 3.109.595a6.256 6.256 0 012.267 1.476 6.281 6.281 0 011.477 2.268c.315.813.53 1.744.595 3.106.061 1.366.077 1.802.077 5.278 0 3.476-.016 3.912-.077 5.277-.064 1.362-.28 2.293-.595 3.107a6.283 6.283 0 01-1.477 2.267 6.263 6.263 0 01-2.266 1.477c-.815.317-1.746.532-3.108.595-1.366.062-1.8.077-5.277.077-3.476 0-3.912-.015-5.278-.077-1.362-.063-2.293-.278-3.107-.595a6.268 6.268 0 01-2.267-1.477 6.271 6.271 0 01-1.476-2.268c-.316-.814-.532-1.744-.595-3.106-.061-1.366-.077-1.8-.077-5.277 0-3.476.016-3.913.077-5.278.061-1.362.277-2.293.595-3.107a6.284 6.284 0 011.477-2.267 6.268 6.268 0 012.268-1.476c.813-.316 1.744-.532 3.106-.595z" fill="currentColor"/><path fill-rule="evenodd" clip-rule="evenodd" d="M22.853 13.507h1.148c3.418 0 3.823.012 5.173.073 1.248.057 1.925.266 2.376.441.598.232 1.023.51 1.471.957.448.449.725.875.958 1.473.175.45.384 1.127.44 2.375.062 1.35.075 1.755.075 5.171 0 3.416-.013 3.822-.074 5.171-.057 1.248-.266 1.925-.441 2.376a3.958 3.958 0 01-.958 1.47 3.959 3.959 0 01-1.47.958c-.451.176-1.13.384-2.377.44-1.35.062-1.755.075-5.173.075s-3.823-.013-5.172-.074c-1.248-.058-1.925-.266-2.377-.441a3.965 3.965 0 01-1.472-.958 3.968 3.968 0 01-.958-1.471c-.175-.45-.384-1.128-.44-2.376-.062-1.35-.074-1.755-.074-5.173s.012-3.821.073-5.17c.058-1.249.266-1.926.441-2.377.232-.598.51-1.024.958-1.472a3.972 3.972 0 011.472-.958c.451-.176 1.129-.384 2.377-.441 1.18-.054 1.638-.07 4.024-.072v.003zm7.98 2.125a1.536 1.536 0 100 3.073 1.536 1.536 0 000-3.073zM17.429 24a6.574 6.574 0 1113.147 0 6.574 6.574 0 01-13.147 0z" fill="currentColor"/><path d="M24.001 19.733a4.267 4.267 0 110 8.534 4.267 4.267 0 010-8.534z" fill="currentColor"/></svg><svg fill="none" viewBox="0 0 48 48" id="telegram" xmlns="http://www.w3.org/2000/svg"><path fill-rule="evenodd" clip-rule="evenodd" d="M0 24c0 13.255 10.745 24 24 24s24-10.745 24-24S37.255 0 24 0 0 10.745 0 24zm19.6 11l.408-6.118 11.129-10.043c.488-.433-.107-.645-.755-.252l-13.735 8.665-5.932-1.851c-1.281-.393-1.29-1.273.287-1.906l23.118-8.914c1.056-.48 2.075.254 1.672 1.87l-3.937 18.552c-.275 1.319-1.071 1.634-2.175 1.025l-5.997-4.431L20.8 34.4l-.027.026c-.322.314-.59.574-1.173.574z" fill="currentColor"/></svg><svg fill="none" viewBox="0 0 48 48" id="viber" xmlns="http://www.w3.org/2000/svg"><path fill-rule="evenodd" clip-rule="evenodd" d="M24 0c13.255 0 24 10.745 24 24S37.255 48 24 48 0 37.255 0 24 10.745 0 24 0zm6.394 20.958c-.117-.948-.408-1.692-.926-2.352-.672-.85-1.53-1.358-2.802-1.66-.83-.2-1.164-.178-1.464.096-.279.257-.334.771-.12 1.104.15.242.323.328.804.423.642.118 1.085.27 1.488.501.855.494 1.253 1.267 1.296 2.518.02.588.07.769.276.977.38.381 1.057.307 1.344-.149.106-.172.122-.247.133-.646a6.33 6.33 0 00-.029-.812zm.012-5.818c2.033 1.645 3.17 3.982 3.339 6.888.07 1.144-.024 1.517-.427 1.729a.862.862 0 01-1.06-.164c-.188-.193-.26-.456-.258-.923.009-1.29-.288-2.73-.772-3.73a7.204 7.204 0 00-2.51-2.876c-.953-.636-2.213-1.065-3.435-1.172-.793-.07-1.076-.204-1.228-.584-.095-.227-.07-.62.04-.796.105-.162.34-.342.506-.39.175-.05 1.2.039 1.755.15 1.518.309 2.904.944 4.05 1.868zm7.046 18.076a3.194 3.194 0 00-.284-.569c-.597-.901-3.803-3.41-5.404-4.231-.915-.47-1.592-.627-2.094-.48-.54.152-.824.404-1.729 1.528-.365.45-.739.873-.838.94-.247.17-.73.308-1.07.308-.792-.005-2.227-.517-3.33-1.191-.858-.522-1.957-1.457-2.8-2.381-.995-1.087-1.672-2.045-2.207-3.127-.692-1.39-.867-2.239-.578-2.86a2.3 2.3 0 01.208-.375c.043-.047.488-.413.98-.811.967-.769 1.123-.944 1.303-1.47.227-.67.166-1.353-.185-2.04-.27-.523-.975-1.661-1.487-2.396-.677-.968-2.364-3.036-2.7-3.316-.606-.494-1.383-.58-2.24-.247-.905.351-2.6 1.717-3.325 2.67-.654.864-.905 1.476-.943 2.283-.033.664.024.939.374 1.788 2.743 6.66 6.835 11.978 12.458 16.2 2.936 2.206 5.982 3.886 9.142 5.034 1.842.668 2.643.702 3.585.151.398-.237 1.383-1.247 1.933-1.983.91-1.224 1.246-1.788 1.34-2.239.066-.308.014-.844-.109-1.186zm-1.21-15.015c.576 1.502.853 2.85.914 4.494.01.325.005.92-.016 1.322-.044.773-.086.926-.309 1.13-.357.336-1.054.256-1.318-.148-.138-.217-.157-.376-.13-1.278.076-2.67-.464-4.76-1.764-6.85-1.554-2.507-3.88-4.196-6.902-5.023-.771-.21-1.42-.338-2.431-.474-.658-.087-.803-.123-.965-.223-.49-.314-.497-1.11-.008-1.43.252-.168.439-.175 1.261-.07 2.413.302 4.566 1.019 6.335 2.102 1.268.778 2.068 1.476 3.097 2.7 1.089 1.304 1.666 2.27 2.235 3.748z" fill="currentColor"/></svg></svg>