<svg width="30" height="25" fill="none" xmlns="http://www.w3.org/2000/svg"><path d="M24.589 24.79H5.409a1.74 1.74 0 01-1.735-1.571L2.416 10.61a.452.452 0 01.453-.5h24.262a.455.455 0 01.453.5l-1.258 12.61a1.742 1.742 0 01-1.737 1.57zM3.369 11.02L4.58 23.13a.829.829 0 00.83.751h19.18a.83.83 0 00.83-.751l1.21-12.109H3.368zm3.544-5.347a.451.451 0 01-.348-.163.452.452 0 01.056-.64L12.299.107a.454.454 0 11.584.696L7.204 5.567a.453.453 0 01-.29.106zm16.177 0a.457.457 0 01-.293-.106L17.118.803a.456.456 0 01-.056-.64.456.456 0 01.64-.057l5.68 4.764a.456.456 0 01-.293.803z" fill="#F063B8"/><path d="M28.432 11.02H1.568A1.57 1.57 0 010 9.452V6.545a1.57 1.57 0 011.568-1.568h26.864A1.57 1.57 0 0130 6.545v2.907a1.57 1.57 0 01-1.568 1.568zM1.568 5.885a.66.66 0 00-.659.659v2.907c0 .364.296.66.66.66h26.863a.66.66 0 00.659-.66V6.544a.66.66 0 00-.66-.66H1.569zm6.846 15.19a.455.455 0 01-.455-.455v-6.59a.455.455 0 01.91 0v6.59a.454.454 0 01-.455.455zm4.39 0a.455.455 0 01-.454-.455v-6.59a.455.455 0 01.909 0v6.59a.454.454 0 01-.455.455zm4.391 0a.455.455 0 01-.455-.455v-6.59a.455.455 0 01.91 0v6.59a.454.454 0 01-.455.455zm4.392 0a.455.455 0 01-.454-.455v-6.59a.455.455 0 01.909 0v6.59a.454.454 0 01-.455.455z" fill="#F063B8"/></svg>