<svg width="28" height="27" fill="none" xmlns="http://www.w3.org/2000/svg"><path d="M27.164 13.614c0 1.854-.037 3.714.011 5.569.08 3.282-1.983 5.819-4.61 6.949a8.336 8.336 0 01-3.31.693c-3.586.005-7.177.053-10.764-.016-2.702-.054-4.924-1.184-6.517-3.411-.837-1.172-1.237-2.505-1.237-3.949V7.992c0-3.118 1.52-5.298 4.216-6.715C6.125.664 7.399.403 8.726.397c3.48 0 6.965-.02 10.445.011 2.701.022 4.956 1.055 6.618 3.23.928 1.215 1.375 2.61 1.375 4.146v5.83zm-24.46 0v5.862c0 .874.202 1.694.655 2.435 1.189 1.945 2.985 2.894 5.212 2.931 3.576.053 7.157.021 10.738.01.88 0 1.732-.18 2.526-.559 2.164-1.034 3.373-2.68 3.363-5.153-.021-3.784-.006-7.567-.006-11.351 0-1.071-.303-2.052-.937-2.915-1.226-1.657-2.92-2.473-4.946-2.494-3.57-.043-7.14-.016-10.711-.01-.762 0-1.498.154-2.212.42-1.961.73-3.784 2.58-3.698 5.303.064 1.844.016 3.682.016 5.52z" fill="#FE3CB1"/><path d="M13.98 19.263c-3.437 0-6.208-2.74-6.213-6.15-.006-3.357 2.787-6.107 6.203-6.107 3.426-.005 6.208 2.739 6.213 6.123 0 3.379-2.776 6.129-6.203 6.134zm0-1.972c2.34 0 4.237-1.87 4.232-4.173-.006-2.28-1.903-4.146-4.232-4.146-2.34 0-4.247 1.86-4.247 4.157.005 2.302 1.908 4.167 4.247 4.162zM20.903 5.14c.72 0 1.306.613 1.306 1.365-.006.751-.597 1.359-1.317 1.353-.709-.005-1.29-.612-1.29-1.348-.005-.751.581-1.37 1.3-1.37z" fill="#FE3CB1"/></svg>