<svg width="32" height="32" fill="none" xmlns="http://www.w3.org/2000/svg"><path d="M31.856 25.506l-.16-.48c-.377-1.122-1.613-2.291-2.749-2.6l-4.204-1.147c-1.14-.31-2.766.106-3.6.94l-1.522 1.522A16.14 16.14 0 018.263 12.382l1.522-1.522c.834-.834 1.25-2.458.94-3.598L9.58 3.056C9.27 1.918 8.098.68 6.98.308L6.5.147C5.377-.226 3.779.15 2.944.985L.668 3.263C.262 3.668.002 4.825.002 4.83a26.88 26.88 0 007.865 19.3 26.888 26.888 0 0019.24 7.867c.038 0 1.228-.256 1.635-.66l2.276-2.276c.834-.834 1.211-2.433.838-3.554z" fill="#C4C4C4"/></svg>