<svg width="141" height="164" fill="none" xmlns="http://www.w3.org/2000/svg"><path d="M112.086 123.255l8.346 19.689-20.867-.736-13.965 15.53-9.803-23.106" fill="#9C69E2"/><path d="M84.614 163.648l-11.779-27.759 5.924-2.515 7.828 18.454 11.593-12.889 17.32.609-6.376-15.036 5.924-2.515 10.315 24.342-24.412-.861-16.337 18.17z" fill="#656872"/><path d="M65.311 133.805l-9.659 23.933-14.235-15.285-20.85 1.1 9.159-22.703" fill="#9C69E2"/><path d="M56.742 163.629l-16.654-17.881-24.394 1.285 11.047-27.387 5.968 2.408-7.271 18.019 17.307-.914 11.817 12.687 7.768-19.248 5.962 2.414-11.55 28.617z" fill="#656872"/><path d="M137.783 70.557c0 3.43-6.22 6.325-6.741 9.604-.528 3.367 4.492 8.038 3.462 11.213-1.046 3.232-7.863 4.056-9.38 7.036-1.536 3.018 1.781 9.022-.191 11.732-1.985 2.732-8.72 1.415-11.095 3.791-2.381 2.377-1.067 9.117-3.791 11.11-2.714 1.968-8.71-1.358-11.722.183-2.978 1.524-3.804 8.337-7.033 9.39-3.166 1.028-7.834-3.996-11.198-3.465-3.283.519-6.176 6.747-9.596 6.747-3.424 0-6.32-6.228-9.593-6.747-3.364-.531-8.035 4.493-11.204 3.465-3.226-1.053-4.05-7.866-7.024-9.39-3.015-1.541-9.015 1.785-11.725-.189-2.724-1.987-1.414-8.727-3.792-11.104-2.378-2.383-9.109-1.062-11.094-3.791-1.979-2.716 1.348-8.721-.188-11.732-1.524-2.98-8.337-3.81-9.383-7.036-1.033-3.175 3.986-7.846 3.462-11.213-.522-3.28-6.741-6.18-6.741-9.604 0-3.424 6.22-6.322 6.74-9.601.525-3.367-4.497-8.039-3.46-11.207 1.042-3.229 7.852-4.062 9.378-7.042 1.533-3.012-1.787-9.016.186-11.73 1.985-2.725 8.72-1.41 11.097-3.794 2.378-2.38 1.065-9.12 3.791-11.103 2.711-1.978 8.71 1.345 11.723-.189 2.975-1.524 3.804-8.343 7.027-9.39 3.172-1.031 7.837 3.99 11.207 3.464 3.273-.518 6.169-6.746 9.593-6.746 3.424 0 6.32 6.228 9.596 6.746 3.364.525 8.032-4.495 11.204-3.46 3.226 1.05 4.052 7.862 7.027 9.386 3.018 1.54 9.015-1.789 11.725.189 2.724 1.987 1.414 8.724 3.791 11.103 2.378 2.383 9.113 1.07 11.092 3.795 1.979 2.713-1.345 8.717.191 11.732 1.524 2.977 8.334 3.807 9.38 7.035 1.03 3.172-3.99 7.844-3.462 11.211.521 3.279 6.741 6.177 6.741 9.6z" fill="#F5D470"/><path d="M70.498 141.117c-3.172 0-5.427-2.348-7.419-4.423-.795-.83-2.13-2.22-2.692-2.368-.694.004-2.261.846-3.408 1.459-2.01 1.075-4.086 2.188-6.354 2.188-.666 0-1.31-.097-1.916-.295-3-.978-4.407-3.898-5.651-6.473-.509-1.05-1.354-2.804-1.856-3.119-.016 0-1.983.032-3.66.327-1.35.242-2.745.491-4.124.491-1.765 0-3.191-.415-4.36-1.264-2.529-1.845-2.968-5.043-3.358-7.866-.163-1.166-.43-3.118-.82-3.571-.44-.377-2.39-.644-3.555-.805-2.82-.389-6.015-.829-7.86-3.36-1.837-2.525-1.271-5.7-.775-8.504.207-1.166.556-3.118.32-3.669-.301-.48-2.06-1.332-3.11-1.842-2.575-1.245-5.493-2.66-6.464-5.655-.96-2.955.556-5.788 1.891-8.287.566-1.06 1.514-2.83 1.451-3.43-.14-.534-1.532-1.873-2.362-2.672C2.346 75.986 0 73.73 0 70.557c0-3.172 2.346-5.43 4.416-7.42.833-.8 2.221-2.137 2.369-2.703.056-.569-.892-2.339-1.458-3.395-1.338-2.502-2.855-5.335-1.888-8.293.965-2.986 3.883-4.404 6.459-5.652 1.052-.51 2.808-1.362 3.119-1.865.226-.528-.123-2.483-.33-3.65-.496-2.8-1.062-5.972.773-8.497 1.843-2.53 5.038-2.97 7.858-3.36 1.166-.16 3.12-.431 3.572-.82.374-.438.644-2.393.804-3.56.39-2.822.832-6.023 3.364-7.865 1.165-.852 2.591-1.264 4.363-1.264 1.379 0 2.777.249 4.124.488 1.722.304 3.666.326 3.675.317.475-.299 1.326-2.056 1.835-3.11 1.244-2.574 2.654-5.497 5.65-6.469a6.174 6.174 0 011.92-.298c2.268 0 4.347 1.116 6.357 2.19 1.144.614 2.714 1.453 3.408 1.453.56-.141 1.894-1.53 2.69-2.36C65.07 2.347 67.325 0 70.497 0c3.173 0 5.428 2.348 7.416 4.42.798.833 2.133 2.223 2.699 2.37.688-.006 2.255-.845 3.398-1.455 2.01-1.078 4.09-2.191 6.358-2.191.669 0 1.316.1 1.925.298 2.994.975 4.404 3.895 5.651 6.47.506 1.05 1.354 2.804 1.857 3.119.015 0 1.978-.029 3.659-.327 1.347-.242 2.742-.49 4.124-.49 1.766 0 3.195.414 4.36 1.263 2.529 1.845 2.968 5.043 3.358 7.865.163 1.167.43 3.122.82 3.572.439.377 2.393.647 3.558.808 2.821.39 6.016.833 7.853 3.363 1.838 2.518 1.275 5.694.776 8.495-.207 1.17-.553 3.124-.317 3.675.301.477 2.057 1.33 3.106 1.839 2.576 1.245 5.494 2.66 6.465 5.658.958 2.952-.556 5.781-1.891 8.28-.566 1.057-1.514 2.83-1.451 3.43.141.538 1.529 1.874 2.362 2.676 2.069 1.99 4.416 4.247 4.416 7.419 0 3.175-2.346 5.435-4.419 7.425-.83.799-2.218 2.135-2.366 2.7-.056.573.889 2.343 1.458 3.402 1.335 2.5 2.849 5.329 1.891 8.284-.971 2.999-3.892 4.413-6.468 5.658-1.046.507-2.799 1.355-3.113 1.855-.229.535.12 2.496.327 3.666.496 2.801 1.059 5.97-.776 8.491-1.844 2.534-5.045 2.974-7.868 3.363-1.163.161-3.11.428-3.559.815-.377.44-.647 2.395-.807 3.562-.39 2.819-.83 6.017-3.355 7.865-1.175.852-2.598 1.261-4.357 1.261-1.382 0-2.776-.249-4.13-.488-1.722-.311-3.666-.32-3.675-.32-.484.302-1.335 2.059-1.84 3.109-1.248 2.575-2.658 5.495-5.655 6.473a6.19 6.19 0 01-1.92.295c-2.264 0-4.34-1.113-6.35-2.188-1.144-.613-2.711-1.455-3.405-1.455-.569.144-1.907 1.537-2.705 2.37-1.988 2.069-4.24 4.417-7.41 4.417zm-10.11-13.226c.345 0 .684.029 1.02.082 2.62.415 4.58 2.458 6.31 4.26.814.849 2.162 2.251 2.78 2.436.616-.185 1.96-1.584 2.77-2.43 1.735-1.808 3.701-3.854 6.324-4.266 2.576-.415 5.126.883 7.463 2.135 1.062.569 2.664 1.427 3.314 1.427.393-.261 1.263-2.059 1.78-3.134 1.094-2.261 2.335-4.823 4.713-6.042 2.032-1.044 5.01-.771 7.727-.283 1.768.314 3.624.32 3.634.323.27-.364.54-2.329.703-3.502.346-2.502.735-5.341 2.642-7.243 1.894-1.895 4.724-2.285 7.221-2.631 1.172-.16 3.135-.431 3.584-.824.151-.437-.191-2.37-.399-3.527-.439-2.493-.939-5.316.286-7.724 1.213-2.383 3.776-3.625 6.037-4.719 1.072-.518 2.865-1.386 3.17-1.902.003-.458-.917-2.178-1.467-3.203-1.197-2.241-2.557-4.778-2.136-7.463.418-2.625 2.459-4.59 4.259-6.319.814-.782 2.328-2.238 2.447-2.832-.122-.497-1.577-1.896-2.444-2.732-1.803-1.732-3.844-3.694-4.259-6.316-.424-2.69.936-5.228 2.133-7.47.55-1.024 1.47-2.744 1.426-3.331-.264-.384-2.057-1.255-3.129-1.774-2.258-1.094-4.818-2.332-6.034-4.709-1.228-2.411-.728-5.234-.285-7.724.204-1.157.549-3.093.32-3.64-.374-.283-2.328-.553-3.496-.714-2.5-.346-5.334-.735-7.237-2.64-1.897-1.902-2.29-4.735-2.632-7.237-.16-1.142-.421-3.037-.798-3.546-.013 0-.198-.026-.55-.026-.813 0-1.875.19-3 .39-2.707.484-5.685.761-7.72-.283-2.381-1.22-3.619-3.781-4.712-6.042-.518-1.072-1.385-2.867-1.904-3.172-.536.038-2.079.865-3.203 1.465-2.331 1.248-4.872 2.537-7.448 2.138-2.626-.418-4.589-2.462-6.32-4.263-.835-.87-2.233-2.326-2.827-2.449-.5.123-1.897 1.578-2.732 2.45-1.731 1.8-3.691 3.844-6.31 4.259-2.627.415-5.127-.887-7.464-2.135-1.125-.603-2.664-1.43-3.32-1.43-.393.267-1.263 2.062-1.781 3.134-1.093 2.264-2.33 4.826-4.706 6.042-2.047 1.044-5.01.764-7.717.286-1.775-.317-3.631-.323-3.64-.323-.28.374-.553 2.335-.714 3.505-.345 2.502-.735 5.335-2.635 7.236-1.9 1.906-4.734 2.295-7.234 2.641-1.172.16-3.132.434-3.58.824-.148.434.197 2.37.401 3.527.443 2.49.946 5.313-.28 7.718-1.218 2.383-3.778 3.624-6.037 4.718-1.07.52-2.864 1.39-3.169 1.909-.003.462.917 2.175 1.464 3.2 1.2 2.238 2.557 4.775 2.139 7.457-.418 2.631-2.46 4.593-4.262 6.325-.867.836-2.322 2.235-2.444 2.826.122.497 1.577 1.899 2.444 2.735 1.803 1.732 3.844 3.697 4.259 6.316.42 2.69-.936 5.228-2.133 7.463-.55 1.028-1.47 2.747-1.43 3.338.268.384 2.061 1.255 3.133 1.773 2.258 1.094 4.821 2.336 6.04 4.716 1.225 2.405.726 5.228.28 7.718-.205 1.16-.55 3.096-.321 3.643.37.283 2.33.554 3.5.714 2.5.342 5.333.732 7.236 2.637 1.897 1.899 2.29 4.735 2.632 7.237.16 1.141.421 3.034.795 3.546.041.007.204.026.553.026.81 0 1.875-.192 3-.39 2.707-.485 5.682-.761 7.724.283 2.377 1.219 3.615 3.781 4.708 6.045.518 1.072 1.385 2.87 1.904 3.175.524-.044 2.063-.868 3.19-1.471 2.033-1.088 4.134-2.217 6.443-2.217z" fill="#656872"/><path d="M112.48 70.557c0 23.207-18.797 42.016-41.98 42.016-23.185 0-41.981-18.81-41.981-42.016 0-23.204 18.796-42.015 41.98-42.015 23.184 0 41.981 18.811 41.981 42.015z" fill="#88C322"/><path d="M70.498 99.203c-14.477 0-26.256-12.688-26.256-28.284 0-15.596 11.78-28.284 26.256-28.284 14.48 0 26.26 12.688 26.26 28.284 0 15.596-11.78 28.284-26.26 28.284zm0-50.13c-10.93 0-19.823 9.8-19.823 21.846s8.893 21.845 19.823 21.845c10.931 0 19.827-9.799 19.827-21.845 0-12.047-8.896-21.846-19.827-21.846z" fill="#656872"/><path d="M90.483 99.492a3.205 3.205 0 01-2.274-.943l-14.64-14.653a3.22 3.22 0 010-4.552 3.213 3.213 0 014.547 0l14.641 14.652a3.22 3.22 0 01-2.274 5.496z" fill="#656872"/></svg>