<svg width="158" height="155" fill="none" xmlns="http://www.w3.org/2000/svg"><path d="M24.748 154.245c10.282 0 18.616-8.335 18.616-18.616 0-10.281-8.334-18.616-18.615-18.616-10.282 0-18.616 8.335-18.616 18.616 0 10.281 8.334 18.616 18.616 18.616z" fill="#575757"/><path d="M17.102 152.601a18.613 18.613 0 0024.618-24.618 37.314 37.314 0 01-24.617 24.618z" fill="#4A4A4A"/><path d="M24.748 140.948a5.32 5.32 0 100-10.639 5.32 5.32 0 000 10.639z" fill="#6E6E6E"/><path d="M56.661 47.869v10.637h-5.319a5.318 5.318 0 110-10.637h5.319z" fill="#FDA5A3"/><path d="M96.552 47.869h-39.89v10.637h39.89V47.87z" fill="#00659D"/><path d="M51.941 42.55H36.377a13.128 13.128 0 00-10.085 21.532l4.435 5.322a5.32 5.32 0 01.878 5.315L19.43 106.376h18.615l18.942-56.825a5.319 5.319 0 00-5.046-7z" fill="#8E54DE"/><path d="M72.617 111.694h-3.989a6.648 6.648 0 000 13.297h10.638a6.647 6.647 0 006.648-6.648v-17.286a7.978 7.978 0 017.978-7.978h13.297a5.317 5.317 0 005.319-5.32V71.804H91.233v5.32a5.319 5.319 0 01-5.319 5.318h-2.66A10.638 10.638 0 0072.617 93.08v18.615z" fill="#575757"/><path d="M109.393 42.094l-.645-.645a5.323 5.323 0 01-1.558-3.76V15.955H80.596v8.755a10.637 10.637 0 006.686 9.876l3.267 1.307a5.32 5.32 0 013.344 4.938v4.378l-2.66 2.659v23.934h21.275V49.617c0-2.822-1.12-5.527-3.115-7.522z" fill="#FFB68C"/><path d="M104.099 15.956L84.116 32.61c.93.841 2.003 1.511 3.167 1.978l1.87.748 18.037-15.03v-4.349h-3.091z" fill="#46C89D"/><path d="M109.393 42.094l-.646-.646a5.32 5.32 0 01-1.557-3.76v-.457h-3.116a5.317 5.317 0 00-3.761 1.558l-9.08 9.08v23.934h21.276V49.617c0-2.821-1.121-5.527-3.116-7.522z" fill="#00659D"/><path d="M149.739 45.21h-31.912a5.319 5.319 0 00-5.319 5.319v37.23a5.319 5.319 0 005.319 5.32h31.912a5.319 5.319 0 005.319-5.32V50.53a5.319 5.319 0 00-5.319-5.32z" fill="#68C9BA"/><path d="M112.508 55.847h42.55v-5.319a5.317 5.317 0 00-5.319-5.318h-31.912a5.317 5.317 0 00-5.319 5.319v5.318z" fill="#47BDAB"/><path d="M147.08 29.253h-21.275v5.319h21.275v-5.319zm5.319-10.637h-21.275v5.319h21.275v-5.32zm5.319-10.638h-15.956v5.319h15.956V7.978z" fill="#CBE2EF"/><path d="M85.914 111.694H68.628a6.648 6.648 0 000 13.297h10.638a6.647 6.647 0 006.648-6.648v-6.649z" fill="#00659D"/><path d="M147.08 93.079H93.892a7.98 7.98 0 00-7.978 7.978v2.659h69.144v-2.659a7.976 7.976 0 00-7.978-7.978z" fill="#B58AF1"/><path d="M136.443 63.825h-5.319v7.979h5.319v-7.979z" fill="#59CEA7"/><path d="M83.711 55.39a10.638 10.638 0 01-7.522 3.116H48.683a5.319 5.319 0 000 10.638h32.825a10.64 10.64 0 007.522-3.116l16.507-16.507a5.63 5.63 0 001.653-3.989c0-5.026-6.077-7.543-9.63-3.989L83.71 55.391z" fill="#0071AF"/><path d="M54.002 58.507v10.637h-5.319a5.319 5.319 0 110-10.637h5.319z" fill="#FDA5A3"/><path d="M144.421 82.441v-2.66a10.637 10.637 0 00-21.275 0v2.66h21.275z" fill="#BDECDC"/><path d="M36.376 42.55a13.128 13.128 0 00-10.25 4.927 13.126 13.126 0 00-.406 15.863l5.725-2.863a10.638 10.638 0 005.334-6.15l3.925-11.777h-4.328z" fill="#CBE2EF"/><path d="M28.294 83.328l-8.864 23.048h18.615l3.325-9.973-13.076-13.075z" fill="#9C69E2"/><path d="M85.914 103.716v14.627a6.649 6.649 0 01-6.648 6.648H56.739a5.323 5.323 0 01-4.328-2.227l-9.995-13.993a5.719 5.719 0 00-4.656-2.396H18.29c-.996 0-1.975.26-2.84.754l-12.47 7.127a5.818 5.818 0 00-2.44 7.525 5.717 5.717 0 006.068 3.162 5.734 5.734 0 002.259-.887l5.235-3.49a5.315 5.315 0 012.95-.894H31.89a5.311 5.311 0 014.328 2.228l8.215 11.501a5.315 5.315 0 004.328 2.228h69.067a5.315 5.315 0 015.319-5.319 5.319 5.319 0 015.318 5.319h13.297v-13.215a7.976 7.976 0 015.015-7.407l3.267-1.307a7.98 7.98 0 005.015-7.407v-2.577H85.914z" fill="#9C69E2"/><path d="M123.146 154.245c10.281 0 18.616-8.335 18.616-18.616 0-10.281-8.335-18.616-18.616-18.616-10.281 0-18.616 8.335-18.616 18.616 0 10.281 8.335 18.616 18.616 18.616z" fill="#575757"/><path d="M123.146 140.948a5.32 5.32 0 10-.002-10.64 5.32 5.32 0 00.002 10.64z" fill="#6E6E6E"/><path d="M112.508 50.528V87.76a5.317 5.317 0 005.319 5.319h31.912a5.308 5.308 0 001.368-.185 42.554 42.554 0 01-38.599-42.366z" fill="#47BDAB"/><path d="M91.233 93.079h15.957a5.32 5.32 0 005.319-5.32V71.804A21.28 21.28 0 0191.233 93.08z" fill="#4A4A4A"/><path d="M91.233 71.803h21.276V50.528a21.28 21.28 0 01-21.276 21.275zm-18.616 53.188h6.649a6.65 6.65 0 006.648-6.648v-6.649a13.298 13.298 0 01-13.297 13.297z" fill="#005686"/><path d="M115.5 152.601a18.611 18.611 0 0025.957-13.619 18.613 18.613 0 00-1.339-10.999 37.308 37.308 0 01-24.618 24.618z" fill="#4A4A4A"/><path d="M147.08 93.079h-34.572a42.387 42.387 0 0128.141 10.637h14.409v-2.659a7.977 7.977 0 00-7.978-7.978z" fill="#8E54DE"/><path d="M149.181 114.045l.862-.345a7.98 7.98 0 005.015-7.407v-2.577h-14.41a42.72 42.72 0 018.533 10.329z" fill="#F063B8"/><path d="M107.19 37.231V15.956H80.596v.927a34.64 34.64 0 0123.938 20.348h2.656z" fill="#D78D8B"/><path d="M19.462 106.293l-.032.082h18.615l2.942-8.823a36.826 36.826 0 01-21.526 8.741z" fill="#730DFF"/><path d="M123.198 78.728c-.034.346-.052.698-.052 1.053v2.66h3.773a42.808 42.808 0 01-3.721-3.713z" fill="#A1C9BC"/><path d="M104.099 15.956l-9.488 7.907a34.771 34.771 0 013.851 3.714l8.727-7.273v-4.348h-3.09z" fill="#3CAA86"/><path d="M112.508 2.66a9.078 9.078 0 00-6.42-2.66h-24.39a9.08 9.08 0 00-9.08 9.08v1.558h-5.32v5.318h25.424a9.15 9.15 0 019.149 9.149c0 3.605 2.803 6.675 6.406 6.803a6.65 6.65 0 006.891-6.644V9.08a9.08 9.08 0 00-2.66-6.42z" fill="#0071AF"/><path d="M107.189 7.978h-5.319v5.319h5.319V7.978z" fill="#5CA4CC"/><path d="M101.919 25.886a6.726 6.726 0 006.357 6.022 6.65 6.65 0 006.891-6.644V9.08a9.063 9.063 0 00-.557-3.127 31.913 31.913 0 01-12.691 19.933z" fill="#006095"/></svg>