<svg width="229" height="216" fill="none" xmlns="http://www.w3.org/2000/svg"><path d="M113.962 197.977l-90.365-55.178 55.179-90.365 64.986-15.95c5.219-1.283 10.465 2 11.598 7.252l13.777 63.877-55.175 90.364z" fill="#212353" stroke="#FCE0F1" stroke-width="3" stroke-miterlimit="10" stroke-linecap="round" stroke-linejoin="round"/><path d="M159.738 123.005l9.399-15.392-13.781-63.877c-1.133-5.251-6.378-8.534-11.597-7.252l-64.987 15.95-9.398 15.392" fill="#9C69E2"/><path d="M159.738 123.005l9.399-15.392-13.781-63.877c-1.133-5.251-6.378-8.534-11.597-7.252l-64.987 15.95-9.398 15.392" stroke="#4766B0" stroke-width="3" stroke-miterlimit="10" stroke-linecap="round" stroke-linejoin="round"/><path d="M132.163 81.354c5.844-1.413 9.437-7.296 8.024-13.141-1.413-5.845-7.296-9.437-13.141-8.024-5.845 1.413-9.438 7.296-8.025 13.14 1.413 5.846 7.297 9.438 13.142 8.025z" fill="#8CAEDC" stroke="#68C9BA" stroke-width="2" stroke-miterlimit="10" stroke-linecap="round" stroke-linejoin="round"/><path d="M69.375 67.83l90.365 55.178" stroke="#4766B0" stroke-width="2" stroke-miterlimit="10" stroke-linecap="round" stroke-linejoin="round"/><path d="M101.07 136.067a10.97 10.97 0 00-1.876-3.69c-.86-1.112-2.076-2.504-3.654-4.178l5.811-9.515c1.539 1.799 1.98 3.806 1.318 6.018-.546 1.886-.071 3.285 1.424 4.196.795.485 1.638.62 2.536.402.898-.217 1.576-.706 2.042-1.468.418-.686.694-1.556.823-2.606.129-1.05.089-2.176-.125-3.372-.245-1.551-.798-2.935-1.656-4.15-.858-1.215-2.052-2.407-3.581-3.569l1.508-2.471c.765-1.252.658-2.173-.317-2.772-.959-.585-1.832-.237-2.614 1.042l-1.479 2.423c-3.323-1.652-6.333-2.151-9.029-1.493-2.692.658-4.84 2.299-6.442 4.919-1.23 2.014-1.808 3.921-1.735 5.723a10.13 10.13 0 001.53 5.001c.948 1.532 2.273 3.205 3.972 5.017l-6.493 10.634c-.847-.914-1.408-1.834-1.69-2.758-.282-.927-.373-1.814-.274-2.662.1-.848.328-2.025.68-3.529.17-.691.116-1.341-.161-1.951-.278-.61-.76-1.122-1.447-1.541-.854-.522-1.746-.662-2.677-.426-.93.238-1.617.722-2.066 1.456-.605.991-1.01 2.132-1.21 3.421-.201 1.29-.149 2.683.162 4.181.311 1.497.938 2.973 1.881 4.427.943 1.455 2.246 2.826 3.908 4.116l-3.772 6.178c-.429.702-.632 1.288-.618 1.756.015.472.3.875.849 1.207.594.363 1.107.392 1.532.088.426-.305.916-.909 1.465-1.807l3.478-5.697c2.292 1.149 4.524 1.728 6.697 1.736 2.173.008 4.13-.5 5.873-1.519a11.895 11.895 0 004.204-4.135c.848-1.388 1.373-2.821 1.573-4.299.2-1.467.082-2.916-.35-4.333zm-7.916-10.484c-1.066-1.339-1.746-2.526-2.038-3.552-.293-1.027-.074-2.144.66-3.347.775-1.268 1.707-1.992 2.808-2.18 1.096-.186 2.404-.082 3.917.322l-5.347 8.757zm-2.663 18.912c-1.407.419-2.972.309-4.698-.327l6.116-10.017c1.279 1.473 2.103 2.819 2.478 4.041.374 1.223.155 2.496-.656 3.824-.75 1.235-1.833 2.061-3.24 2.479z" fill="#FCFCFC"/><path d="M188.091 27.155c3.487-9.661 2.808-17.276-1.906-21.432-4.714-4.154-12.352-3.88-21.505.788-7.883 4.022-16.403 10.971-23.986 19.571-14.907 16.908-24.679 38.716-14.511 47.681a4.512 4.512 0 006.36-.395 4.508 4.508 0 00-.398-6.36c-3.477-3.064.861-18.572 15.311-34.963 6.85-7.77 14.425-13.988 21.323-17.505 6.03-3.075 10.099-3.232 11.449-2.06 1.352 1.194 1.689 5.247-.607 11.618-2.63 7.283-7.85 15.575-14.705 23.342-1.103 1.251-2.245 2.427-3.384 3.598l2.245 10.347c2.705-2.473 5.364-5.109 7.901-7.982 7.576-8.602 13.406-17.923 16.413-26.248z" fill="#5981C1"/></svg>