<svg width="100" height="100" fill="none" xmlns="http://www.w3.org/2000/svg"><path d="M78.545 12.724v4.261H62.03v-4.261h16.515zm-6.926 9.288H62.03v4.262h9.59v-4.262zm-9.589 13.55h16.515v-4.261H62.03v4.261zm9.59 5.03h-9.59v4.261h9.59v-4.262zm-9.59 13.55h16.515v-4.263H62.03v4.262zm2.575 24.283C64.605 90.32 54.926 100 43.029 100c-11.896 0-21.575-9.679-21.575-21.575 0-7.71 4.049-14.716 10.654-18.592V10.92C32.108 4.899 37.008 0 43.03 0c6.021 0 10.92 4.899 10.92 10.92v48.913a21.464 21.464 0 0110.655 18.592zm-4.262 0c0-6.542-3.636-12.455-9.49-15.428l-1.165-.592V10.923a6.666 6.666 0 00-6.659-6.66 6.666 6.666 0 00-6.659 6.66v51.482l-1.165.592c-5.854 2.975-9.489 8.888-9.489 15.428 0 9.546 7.767 17.313 17.313 17.313 9.547 0 17.314-7.767 17.314-17.313zm-3.55 0c0 7.588-6.174 13.761-13.764 13.761-7.588 0-13.761-6.173-13.761-13.761 0-6.22 4.202-11.682 10.22-13.282l.79-.21v-47.37h5.504V64.93l.79.213c6.02 1.6 10.22 7.064 10.22 13.282zM43.71 69.25a2.754 2.754 0 00-3.288-2.075c-5.216 1.18-8.86 5.742-8.86 11.096a2.753 2.753 0 002.749 2.748 2.753 2.753 0 002.749-2.748c0-2.722 1.922-5.134 4.575-5.732a2.762 2.762 0 002.075-3.289z" fill="#FE3CB1" fill-opacity=".83"/></svg>